<mxfile host="app.diagrams.net" modified="2023-05-16T21:41:51.024Z" agent="Mozilla/5.0 (Windows NT 10.0; Win64; x64) AppleWebKit/537.36 (KHTML, like Gecko) Chrome/113.0.0.0 Safari/537.36" etag="KC0G1DtQlT6MFuWONT74" version="21.3.2" type="google">
  <diagram name="Page-1" id="bd83a815-5ea8-2e97-e5ec-87c9f400f2fa">
    <mxGraphModel grid="0" page="1" gridSize="10" guides="1" tooltips="1" connect="1" arrows="1" fold="1" pageScale="1.5" pageWidth="1169" pageHeight="826" background="none" math="0" shadow="0">
      <root>
        <mxCell id="0" style=";html=1;" />
        <mxCell id="1" style=";html=1;" parent="0" />
        <mxCell id="1516e18e63f93b96-3" value="Network Chart" style="text;strokeColor=none;fillColor=none;html=1;fontSize=24;fontStyle=1;verticalAlign=middle;align=center;rounded=0;shadow=1;" vertex="1" parent="1">
          <mxGeometry x="300" y="20" width="780" height="40" as="geometry" />
        </mxCell>
        <mxCell id="FGBgcHPJgdOIr-h83NGk-4" value="" style="rounded=1;arcSize=10;dashed=1;fillColor=none;gradientColor=none;dashPattern=8 3 1 3;strokeWidth=2;" vertex="1" parent="1">
          <mxGeometry x="280" y="194" width="790" height="390" as="geometry" />
        </mxCell>
        <mxCell id="FGBgcHPJgdOIr-h83NGk-1" value="Windows Server" style="outlineConnect=0;dashed=0;verticalLabelPosition=bottom;verticalAlign=top;align=center;html=1;shape=mxgraph.aws3.ec2;fillColor=#F58534;gradientColor=none;rotation=0;" vertex="1" parent="1">
          <mxGeometry x="420.01" y="320" width="76.5" height="93" as="geometry" />
        </mxCell>
        <mxCell id="FGBgcHPJgdOIr-h83NGk-3" value="&lt;font color=&quot;#ffffff&quot;&gt;VPC ID: vpc-0dcf4c6c20e5d0f7d&lt;br&gt;&lt;/font&gt;&lt;div style=&quot;font-size: 14px; line-height: var(--font-body-m-line-height-i7xxvv, 22px); font-family: &amp;quot;Amazon Ember&amp;quot;, &amp;quot;Helvetica Neue&amp;quot;, Roboto, Arial, sans-serif; -webkit-font-smoothing: auto; margin-bottom: var(--space-scaled-xxxs-b6dm8t, 2px);&quot; class=&quot;awsui_root_18wu0_1tu1m_93 awsui_box_18wu0_1tu1m_207 awsui_key-label-variant_18wu0_1tu1m_303 awsui_color-default_18wu0_1tu1m_207 awsui_font-size-default_18wu0_1tu1m_223 awsui_font-weight-default_18wu0_1tu1m_263&quot; data-testid=&quot;column-name&quot;&gt;&lt;font color=&quot;#ffffff&quot;&gt;IPv4 CIDR:&lt;/font&gt;&lt;/div&gt;&lt;div style=&quot;font-family: &amp;quot;Amazon Ember&amp;quot;, &amp;quot;Helvetica Neue&amp;quot;, Roboto, Arial, sans-serif; font-size: 14px;&quot; data-testid=&quot;column-value&quot;&gt;&lt;font color=&quot;#ffffff&quot;&gt;10.0.0.0/16&lt;/font&gt;&lt;/div&gt;" style="outlineConnect=0;dashed=0;verticalLabelPosition=bottom;verticalAlign=top;align=center;html=1;shape=mxgraph.aws3.virtual_private_cloud;fillColor=#F58534;gradientColor=none;" vertex="1" parent="1">
          <mxGeometry x="650.25" y="206" width="79.5" height="54" as="geometry" />
        </mxCell>
        <mxCell id="FGBgcHPJgdOIr-h83NGk-5" value="Linux Server" style="outlineConnect=0;dashed=0;verticalLabelPosition=bottom;verticalAlign=top;align=center;html=1;shape=mxgraph.aws3.ec2;fillColor=#F58534;gradientColor=none;" vertex="1" parent="1">
          <mxGeometry x="877" y="320" width="76.5" height="93" as="geometry" />
        </mxCell>
        <mxCell id="FGBgcHPJgdOIr-h83NGk-6" value="" style="outlineConnect=0;dashed=0;verticalLabelPosition=bottom;verticalAlign=top;align=center;html=1;shape=mxgraph.aws3.cloud_2;fillColor=#F58534;gradientColor=none;direction=east;" vertex="1" parent="1">
          <mxGeometry x="650.25" y="90" width="75" height="75" as="geometry" />
        </mxCell>
        <mxCell id="FGBgcHPJgdOIr-h83NGk-7" value="" style="outlineConnect=0;dashed=0;verticalLabelPosition=bottom;verticalAlign=top;align=center;html=1;shape=mxgraph.aws3.user;fillColor=#D2D3D3;gradientColor=none;" vertex="1" parent="1">
          <mxGeometry x="19.5" y="297" width="70" height="99" as="geometry" />
        </mxCell>
        <mxCell id="FGBgcHPJgdOIr-h83NGk-8" value="&lt;div style=&quot;font-size: 14px; line-height: 2rem; margin-bottom: 0.5rem; font-family: &amp;quot;Amazon Ember&amp;quot;, &amp;quot;Helvetica Neue&amp;quot;, Roboto, Arial, sans-serif;&quot; class=&quot;awsui-util-label&quot;&gt;&lt;font color=&quot;#ffffff&quot;&gt;Customer gateway address:18.218.111.144&lt;/font&gt;&lt;/div&gt;" style="outlineConnect=0;dashed=0;verticalLabelPosition=bottom;verticalAlign=top;align=center;html=1;shape=mxgraph.aws3.vpn_connection;fillColor=#F58534;gradientColor=none;" vertex="1" parent="1">
          <mxGeometry x="130" y="347" width="80" height="54.5" as="geometry" />
        </mxCell>
        <mxCell id="FGBgcHPJgdOIr-h83NGk-9" value="&lt;font color=&quot;#ffffff&quot;&gt;&lt;br&gt;&lt;/font&gt;&lt;div style=&quot;font-size: 14px; line-height: 2rem; margin-bottom: 0.5rem; font-family: &amp;quot;Amazon Ember&amp;quot;, &amp;quot;Helvetica Neue&amp;quot;, Roboto, Arial, sans-serif; font-style: normal; font-variant-ligatures: normal; font-variant-caps: normal; font-weight: 400; letter-spacing: normal; orphans: 2; text-align: start; text-indent: 0px; text-transform: none; widows: 2; word-spacing: 0px; -webkit-text-stroke-width: 0px; text-decoration-thickness: initial; text-decoration-style: initial; text-decoration-color: initial;&quot; class=&quot;awsui-util-label&quot;&gt;&lt;font color=&quot;#ffffff&quot;&gt;Type:&amp;nbsp;ipsec.1&lt;/font&gt;&lt;/div&gt;" style="text;html=1;strokeColor=none;fillColor=none;align=center;verticalAlign=middle;whiteSpace=wrap;rounded=0;" vertex="1" parent="1">
          <mxGeometry x="89.5" y="307" width="161" height="54" as="geometry" />
        </mxCell>
        <mxCell id="FGBgcHPJgdOIr-h83NGk-10" value="Local IPv4 network CIDR: 0.0.0.0/0" style="text;html=1;strokeColor=none;fillColor=none;align=center;verticalAlign=middle;whiteSpace=wrap;rounded=0;" vertex="1" parent="1">
          <mxGeometry x="70" y="433" width="210" height="30" as="geometry" />
        </mxCell>
        <mxCell id="Y73Q3IdRS6PUJPvrydgP-1" value="Private Subnet:&amp;nbsp;&lt;br&gt;IPv4 CIDR:&amp;nbsp;10.0.128.0/20&lt;br&gt;Subnet Mask:&lt;br&gt;255.255.240.0" style="rounded=0;whiteSpace=wrap;html=1;" vertex="1" parent="1">
          <mxGeometry x="373.26" y="260" width="170" height="60" as="geometry" />
        </mxCell>
        <mxCell id="Y73Q3IdRS6PUJPvrydgP-2" value="Public Subnet:&lt;br&gt;IPv4 CIDR: 10.0.0.0/20&lt;br&gt;Subnet Mask:&lt;br style=&quot;border-color: var(--border-color);&quot;&gt;255.255.240.0" style="rounded=0;whiteSpace=wrap;html=1;" vertex="1" parent="1">
          <mxGeometry x="826.5" y="260" width="170" height="60" as="geometry" />
        </mxCell>
        <mxCell id="Y73Q3IdRS6PUJPvrydgP-3" value="" style="sketch=0;pointerEvents=1;shadow=0;dashed=0;html=1;strokeColor=none;fillColor=#DF8C42;labelPosition=center;verticalLabelPosition=bottom;verticalAlign=top;align=center;outlineConnect=0;shape=mxgraph.veeam2.encrypted;" vertex="1" parent="1">
          <mxGeometry x="866" y="323.5" width="21" height="21" as="geometry" />
        </mxCell>
        <mxCell id="Y73Q3IdRS6PUJPvrydgP-4" value="" style="sketch=0;pointerEvents=1;shadow=0;dashed=0;html=1;strokeColor=none;fillColor=#DF8C42;labelPosition=center;verticalLabelPosition=bottom;verticalAlign=top;align=center;outlineConnect=0;shape=mxgraph.veeam2.encrypted;" vertex="1" parent="1">
          <mxGeometry x="410" y="320.5" width="21" height="21" as="geometry" />
        </mxCell>
        <mxCell id="Y73Q3IdRS6PUJPvrydgP-5" value="Private IP address:&lt;br&gt;10.0.140.53" style="rounded=0;whiteSpace=wrap;html=1;" vertex="1" parent="1">
          <mxGeometry x="367.38" y="440" width="181.75" height="60" as="geometry" />
        </mxCell>
        <mxCell id="Y73Q3IdRS6PUJPvrydgP-6" value="Security Group:" style="outlineConnect=0;dashed=0;verticalLabelPosition=bottom;verticalAlign=top;align=center;html=1;shape=mxgraph.aws3.shield;fillColor=#759C3E;gradientColor=none;" vertex="1" parent="1">
          <mxGeometry x="1256.7500000000002" y="94.5" width="76.5" height="70.5" as="geometry" />
        </mxCell>
        <mxCell id="Y73Q3IdRS6PUJPvrydgP-7" value="IP Version: IPv4&lt;br&gt;Type: RDP&lt;br&gt;Protocol: TCP&lt;br&gt;Port: 3389&lt;br&gt;Source: 0.0.0.0/0" style="rounded=0;whiteSpace=wrap;html=1;" vertex="1" parent="1">
          <mxGeometry x="1220" y="194" width="152.25" height="90" as="geometry" />
        </mxCell>
        <mxCell id="Y73Q3IdRS6PUJPvrydgP-9" value="Public IP address:&lt;br&gt;18.223.244.241" style="rounded=0;whiteSpace=wrap;html=1;" vertex="1" parent="1">
          <mxGeometry x="839.5" y="440" width="151.5" height="60" as="geometry" />
        </mxCell>
        <mxCell id="Y73Q3IdRS6PUJPvrydgP-10" value="IP Version: IPv4&lt;br&gt;Type: SSH&lt;br&gt;Protocol: TCP&lt;br&gt;Port: SSH&lt;br&gt;Source: 0.0.0.0/0" style="rounded=0;whiteSpace=wrap;html=1;" vertex="1" parent="1">
          <mxGeometry x="1220" y="297" width="150" height="83" as="geometry" />
        </mxCell>
      </root>
    </mxGraphModel>
  </diagram>
</mxfile>
